<?xml version="1.0" standalone="no"?>
<!DOCTYPE svg PUBLIC "-//W3C//DTD SVG 20010904//EN"
 "http://www.w3.org/TR/2001/REC-SVG-20010904/DTD/svg10.dtd">
<svg version="1.0" xmlns="http://www.w3.org/2000/svg"
 width="118.000000pt" height="118.000000pt" viewBox="0 0 118.000000 118.000000"
 preserveAspectRatio="xMidYMid meet">
<metadata>
Created by potrace 1.14, written by Peter Selinger 2001-2017
</metadata>
<g transform="translate(0.000000,118.000000) scale(0.100000,-0.100000)"
fill="#000000" stroke="none">
<path d="M245 973 c-107 -43 -207 -139 -222 -215 -3 -15 -9 -28 -13 -28 -4 0
-7 -44 -5 -97 1 -83 6 -106 28 -153 28 -58 63 -101 112 -139 28 -21 30 -28 35
-104 l5 -82 34 -3 c45 -5 53 6 55 70 1 44 4 53 19 52 9 -1 35 -2 56 -3 l40 -1
-1 -51 c0 -61 8 -72 53 -67 l34 3 5 68 c3 37 7 67 10 66 3 -1 34 16 70 38 92
56 173 84 256 88 l71 4 21 -42 c84 -166 120 -222 143 -222 l24 0 3 263 c2 225
0 268 -14 297 -39 84 -111 123 -237 130 -98 5 -160 24 -237 71 -100 60 -145
74 -228 73 -46 0 -93 -6 -117 -16z m660 -343 c0 -32 -3 -35 -32 -38 -24 -2
-33 1 -38 17 -3 12 -3 30 0 42 5 16 14 19 38 17 29 -3 32 -6 32 -38z m115
-235 c0 -41 -2 -75 -4 -75 -3 0 -18 24 -34 54 l-29 54 26 21 c14 11 29 20 34
20 4 1 7 -33 7 -74z"/>
</g>
</svg>
